<svg xmlns="http://www.w3.org/2000/svg" width="96" height="66" baseProfile="full" viewBox="0 30 96 66" fill="#fff"><defs><mask id="AI-Collision-Target-_svg__c"><path fill="white" d="M-2 25h99v72H-2z"/><path fill="black" d="M60 60h12v3H60z"/></mask><mask id="AI-Collision-Target-_svg__b"><path fill="white" d="M-2 25h99v72H-2z"/><path fill="black" d="M53.852 37.25a4.72 4.72 0 1 1 0 9.438 4.72 4.72 0 0 1 0-9.438M10.652 96H6V48l15.653-.04L41.17 67.448z"/></mask><clipPath id="AI-Collision-Target-_svg__a"><path d="M0 0h96v96H0z"/></clipPath></defs><g fill-rule="evenodd" clip-path="url(#AI-Collision-Target-_svg__a)"><g mask="url(#AI-Collision-Target-_svg__b)"><g mask="url(#AI-Collision-Target-_svg__c)"><path d="M29.99 66.023h48.016v17.974H29.989zM30 54h48v12H30zM81 95h15v1H81zM81 92h15v2H81zM81 78h15v6H81zM81 68h15v2H81zM81 66h15v1H81zM81 72h15v4H81zM81 86h15v4H81zM12 95h15v1H12zM12 92h15v2H12zM12 78.5h15v5H12zM12 68h15v2H12zM12 66h15v1H12zM12 72h15v4H12zM12 86h15v4H12z"/></g><path d="M75.134 52.012c4.232 0 5.802-1.566 5.802-5.905 0-3.069.005 4.556.005-4.037 0-9.413-5.286-15.097-14.944-15.097H41.922c-9.627 0-14.896 5.715-14.896 15.18 0 8.64-.03.867-.03 3.942 0 4.348 1.573 5.917 5.814 5.917z"/></g><path d="m18.036 54.44 18.085 12.7-18.085 12.728zM-.058 54.44l18.085 12.7L-.058 79.868z"/><g opacity=".6"><path d="m23.923 37.768-7.266 1.742 7.906 10.928M-.377 90.362l3.73 5.483 10.093-8.27"/></g></g></svg>