<svg xmlns="http://www.w3.org/2000/svg" width="96" height="66" baseProfile="full" viewBox="0 30 96 66" fill="#fff"><defs><clipPath id="Role-Support_svg__a"><path d="M0 0h96v96H0z"/></clipPath><mask id="Role-Support_svg__b"><path fill="white" d="M-1 28h99v69H-1z"/><path fill="black" d="M72 84H30l-.019-5.989h-5.997v5.998h-5.998V48.023h5.998v3.998h5.997v-3.998h42.034l17.97 17.97z"/></mask></defs><g fill-rule="evenodd" clip-path="url(#Role-Support_svg__a)"><path d="M54 66H12l.018-6.026H6.02v5.997H.023V29.985H6.02v5.998h5.998v-5.998h42.033l17.97 17.97z" mask="url(#Role-Support_svg__b)"/><path d="M78 96H36l.009-6.004H30.01v5.998h-5.998V60.008h5.998v5.998h5.998v-5.998h42.033l17.97 17.97z"/></g></svg>