<svg xmlns="http://www.w3.org/2000/svg" width="96" height="66" baseProfile="full" viewBox="0 30 96 66" fill="#fff"><defs><clipPath id="Specs-Ammo-AP-_svg__a"><path d="M0 0h96v96H0z"/></clipPath><mask id="Specs-Ammo-AP-_svg__b"><path fill="white" d="M-1 29h99v69H-1z"/><path fill="black" d="m9 78-9-3V51l9-3s25.016.128 27.064.128c31.933 0 51.079 9.415 51.079 14.904 0 5.488-18.647 15.06-51.079 15.06C33.914 78.093 9 78 9 78"/></mask></defs><g fill-rule="evenodd" clip-path="url(#Specs-Ammo-AP-_svg__a)"><path d="m0 81 40.064-.001c32.432 0 51.164-14.22 56.079-17.967-4.964-3.785-24.146-17.998-56.079-17.998S0 45 0 45z" mask="url(#Specs-Ammo-AP-_svg__b)" opacity=".302"/><path d="m9 78 21.064-.001c32.432 0 47.985-9.479 47.985-14.967 0-5.49-16.052-14.998-47.985-14.998C24.381 48.034 9 48 9 48z"/><g opacity=".639"><path d="m9 78-9-3V51l9-3zM30.064 77.999c32.432 0 48.079-9.479 48.079-14.967 0-5.49-16.146-14.998-48.079-14.998h6c31.933 0 51.079 9.509 51.079 14.998S68.496 77.999 36.064 77.999z"/></g><path d="M93.506 68.892c-4.466 6.262-12.07 13.578-36.982 16.2h18.287L52 96l24-5-2.857 5.146S89.4 89.028 95.123 70.45c.846-2.745.734-5.45.734-6.307s-.12 1.619-2.351 4.749M93.506 57.264c-4.466-6.261-12.07-13.578-36.982-16.2h18.287L52 30.157l24 5-2.857-5.146S89.4 37.13 95.123 55.707c.846 2.744.734 5.45.734 6.306 0 .858-.12-1.619-2.351-4.749"/></g></svg>