<svg xmlns="http://www.w3.org/2000/svg" width="96" height="66" baseProfile="full" viewBox="0 30 96 66" fill="#fff"><defs><mask id="TankSelector-Equipment-CoatedOptics_svg__b"><path fill="white" d="M-1 25h99v63H-1z"/><path fill="black" d="M39.027 36c11.598 0 21 9.402 21 21s-9.402 21-21 21-21-9.402-21-21 9.402-21 21-21M76.467 35.96c5.825 0 10.547 4.722 10.547 10.546 0 5.825-4.722 10.547-10.547 10.547-5.824 0-10.546-4.722-10.546-10.547 0-5.824 4.722-10.546 10.546-10.546M82.366 65.795a4.64 4.64 0 1 1 0 9.28 4.64 4.64 0 0 1 0-9.28"/></mask><mask id="TankSelector-Equipment-CoatedOptics_svg__d"><path fill="white" d="M-1 25h99v63H-1z"/><path fill="black" d="M34.025 44.875c10.562 0 19.125 8.563 19.125 19.125s-8.563 19.125-19.125 19.125C23.462 83.125 14.9 74.562 14.9 64s8.562-19.125 19.125-19.125"/></mask><mask id="TankSelector-Equipment-CoatedOptics_svg__c"><path fill="white" d="M-1 25h99v63H-1z"/><path fill="black" d="M73.298 42.432a8.778 8.778 0 1 1 0 17.555 8.778 8.778 0 0 1 0-17.555"/></mask><clipPath id="TankSelector-Equipment-CoatedOptics_svg__a"><path d="M0 0h96v96H0z"/></clipPath></defs><g fill-rule="evenodd" clip-path="url(#TankSelector-Equipment-CoatedOptics_svg__a)"><g mask="url(#TankSelector-Equipment-CoatedOptics_svg__b)" style="mix-blend-mode:normal"><path d="M12.375 33.008h71.25c8.5 0 12.375 2.877 12.375 12.367v35.593H0V44.625c0-3.49 2.875-11.617 12.375-11.617" opacity=".4"/><path d="M11.818 36.001h78.033v47.967H11.818z" opacity=".4"/><path d="M12 39.008h78v47.96H12zM10.031 41.881h-3v9.025c0 7.02-2.062 15.757-2.062 23.719v9.472h3v-9.472c0-7.892 2.062-16.502 2.062-23.531z"/><path d="M0 36v38.968h3V36.094C3 30.727 5.198 30 8.906 30h78.282C91.099 30 93 32.847 93 35.813v39.155h3V35.813C96 30.597 92.6 27 87.188 27H8.813C5.16 27 0 30.734 0 36"/><path d="M3 45.095h5.813v5.807H3zM6.375 74.907h5.813v5.808H6.375z"/></g><g mask="url(#TankSelector-Equipment-CoatedOptics_svg__c)"><path d="M41.356 41.436c7.296 0 13.21 5.915 13.21 13.211s-5.914 13.211-13.21 13.211-13.211-5.915-13.211-13.21c0-7.297 5.915-13.212 13.21-13.212" mask="url(#TankSelector-Equipment-CoatedOptics_svg__d)"/><path d="M76.662 40.854a6.063 6.063 0 1 1 0 12.127 6.063 6.063 0 0 1 0-12.127"/></g><g opacity=".502"><path d="M39.025 37.875c10.562 0 19.125 8.563 19.125 19.125s-8.563 19.125-19.125 19.125C28.462 76.125 19.9 67.562 19.9 57s8.562-19.125 19.125-19.125M76.465 37.466a9.046 9.046 0 1 1 0 18.092 9.046 9.046 0 0 1 0-18.092"/><path d="M39.017 44.25c7.041 0 12.75 5.708 12.75 12.75s-5.709 12.75-12.75 12.75-12.75-5.708-12.75-12.75 5.708-12.75 12.75-12.75M76.633 40.883a6.03 6.03 0 1 1 0 12.062 6.03 6.03 0 0 1 0-12.062"/></g></g></svg>