<svg xmlns="http://www.w3.org/2000/svg" width="96" height="66" baseProfile="full" viewBox="0 30 96 66" fill="#fff"><defs><clipPath id="TankSelector-ClassHeavy-big_svg__a"><path d="M0 0h96v96H0z"/></clipPath><mask id="TankSelector-ClassHeavy-big_svg__b"><path fill="white" d="M6 23h86v78H6z"/><path fill="black" d="M20.692 96.177 87.064 36.27l3.558 3.792L24.25 99.97zM7.44 84.216l66.372-59.905 3.37 3.792-66.37 59.906z"/></mask></defs><g clip-path="url(#TankSelector-ClassHeavy-big_svg__a)"><path fill-rule="evenodd" d="M13.958 58.739c7.708-6.98 21.697-19.643 29.718-26.907 2.729-2.47 6.07-2.53 8.708-.14 7.875 7.131 21.784 19.737 29.613 26.827 2.997 2.714 2.882 6.312-.268 9.165L52.716 93.957c-2.824 2.557-6.255 2.708-8.85.358L14.069 67.332c-2.925-2.65-2.973-6.002-.111-8.593" mask="url(#TankSelector-ClassHeavy-big_svg__b)"/></g></svg>